# xmcd
# 
# Track frame offsets:
#     150
#     14435
#     42022
#     61085
#     105755
#     122742
#     148390
#     165515
#     188185
#     218455
#     231862
#     251017
#     277950
# 
# Disc length: 4048
# 
# Revision: 13
# Processed by: cddbd v1.5.2PL0 Copyright (c) Steve Scherf et al.
# Submitted via: fre:ac v1.0.17
# 
DISCID=aa0fce0d
DTITLE=Steppenwolf - Live
DYEAR=1971
DGENRE=Rock
TTITLE0=Sookie, Sookie
TTITLE1=Don't Step On The Grass, Sam
TTITLE2=Tighten Up Your Wig
TTITLE3=Monster
TTITLE4=Draft Resister
TTITLE5=Power Play
TTITLE6=Corina, Corina
TTITLE7=Twisted
TTITLE8=From Here To There Eventually
TTITLE9=Hey Lawdy Mama
TTITLE10=Magic Carpet Ride
TTITLE11=The Pusher
TTITLE12=Born To Be Wild
EXTD=YEAR: 1971
EXTT0=
EXTT1=
EXTT2=
EXTT3=
EXTT4=
EXTT5=
EXTT6=
EXTT7=
EXTT8=
EXTT9=
EXTT10=
EXTT11=
EXTT12=
PLAYORDER=
